<svg width="365" height="233" viewBox="0 0 365 233" fill="none" xmlns="http://www.w3.org/2000/svg">
<rect width="365" height="233" fill="#EC615B"/>
<rect x="20" y="67" width="323" height="50" fill="white"/>
<rect x="18" y="140" width="135" height="38" rx="19" fill="#5222D0"/>
<path d="M42.736 154.9C36.756 154.9 35.95 154.9 35.17 154.9V164C35.95 164 36.756 164 37.549 164V157.045H40.357V164C41.15 164 41.943 164 42.736 164V154.9ZM53.8343 159.463C53.8343 153.171 44.5003 153.171 44.5003 159.463C44.5003 165.768 53.8343 165.768 53.8343 159.463ZM46.8923 159.463C46.8923 156.187 51.4553 156.187 51.4553 159.463C51.4553 162.765 46.8923 162.765 46.8923 159.463ZM56.3768 164.026H61.7588V165.027H63.6698V161.985H62.7208L59.4968 154.783H58.4958L55.3758 161.985H54.4528V165.027H56.3768V164.026ZM58.9898 158.67L60.3028 161.959H57.7288L58.9898 158.67ZM72.4176 154.9C66.4376 154.9 65.6316 154.9 64.8516 154.9V164C65.6316 164 66.4376 164 67.2306 164V157.045H70.0386V164C70.8316 164 71.6246 164 72.4176 164V154.9ZM80.175 159.528V164C80.981 164 81.787 164 82.58 164V154.861H81.735L77.133 159.359V154.9C76.34 154.9 75.547 154.9 74.754 154.9V164.013H75.586L80.175 159.528ZM84.3639 159.45C84.3769 162.544 86.7169 164.104 89.0309 164.091C90.9679 164.091 93.0089 163.077 93.3469 160.503C92.5539 160.503 91.8389 160.503 91.0589 160.503C90.8119 161.478 90.0189 161.972 89.0309 161.972C87.6529 161.959 86.7689 160.789 86.7689 159.45C86.7689 157.942 87.6659 156.915 89.0309 156.915C90.0059 156.915 90.6949 157.331 91.0199 158.254C91.8129 158.254 92.5149 158.254 93.3079 158.254C92.9569 155.823 90.9159 154.796 89.0309 154.796C86.7169 154.796 84.3769 156.356 84.3639 159.45ZM100.915 164H103.19V163.662L99.0817 154.783H98.0807L93.9857 163.662V164H96.2607L96.7937 162.856H100.382L100.915 164ZM99.6277 160.867H97.5477L98.5747 158.475L99.6277 160.867ZM105.19 156.98V164C105.957 164 106.724 164 107.491 164V156.98H109.714C109.714 156.278 109.714 155.589 109.714 154.9H102.954C102.954 155.589 102.954 156.278 102.954 156.98H105.19ZM113.478 154.9C112.698 154.9 111.918 154.9 111.151 154.9C111.151 157.929 111.151 160.958 111.151 164C112.464 164 113.816 164 115.155 164C119.51 163.987 119.51 157.617 115.155 157.617H113.478V154.9ZM115.142 159.71C116.416 159.71 116.494 161.907 115.142 161.92C114.596 161.933 114.011 161.92 113.478 161.92C113.478 161.179 113.478 160.451 113.478 159.71H115.142ZM119.632 159.45C119.645 162.544 121.985 164.104 124.299 164.091C126.236 164.091 128.277 163.077 128.615 160.503C127.822 160.503 127.107 160.503 126.327 160.503C126.08 161.478 125.287 161.972 124.299 161.972C122.921 161.959 122.037 160.789 122.037 159.45C122.037 157.942 122.934 156.915 124.299 156.915C125.274 156.915 125.963 157.331 126.288 158.254C127.081 158.254 127.783 158.254 128.576 158.254C128.225 155.823 126.184 154.796 124.299 154.796C121.985 154.796 119.645 156.356 119.632 159.45ZM129.5 163.662V164H132.1L133.66 161.322H134.869V164C135.649 164 136.442 164 137.196 164C137.196 160.971 137.196 157.942 137.196 154.9C135.883 154.9 134.531 154.9 133.205 154.9C129.63 154.913 128.98 159.216 131.281 160.776L129.5 163.662ZM133.205 159.229C131.944 159.229 131.879 156.993 133.205 156.98C133.751 156.967 134.323 156.98 134.869 156.98C134.869 157.721 134.869 158.501 134.869 159.229H133.205Z" fill="white"/>
<path d="M39.6641 100.205C38.5964 100.205 37.6393 100 36.793 99.5898C35.9466 99.1797 35.3053 98.6654 34.8691 98.0469V95.5469H35.7871L35.9531 97.7051C36.3112 98.1543 36.8158 98.5189 37.4668 98.7988C38.1178 99.0788 38.8503 99.2188 39.6641 99.2188C40.6276 99.2188 41.4674 98.9714 42.1836 98.4766C42.8997 97.9818 43.4564 97.2917 43.8535 96.4062C44.2507 95.5208 44.459 94.4889 44.4785 93.3105L44.4688 93.2324H38.6289V92.2559H44.4297L44.4492 92.207C44.4102 91.0807 44.1888 90.0944 43.7852 89.248C43.3815 88.3952 42.8184 87.7344 42.0957 87.2656C41.373 86.7904 40.5137 86.5527 39.5176 86.5527C38.7168 86.5527 38.0137 86.6927 37.4082 86.9727C36.8092 87.2461 36.3242 87.6139 35.9531 88.0762L35.7871 90.2344H34.8691V87.7246C35.3118 87.1126 35.9466 86.6016 36.7734 86.1914C37.6068 85.7812 38.5508 85.5762 39.6055 85.5762C40.8424 85.5762 41.9167 85.8822 42.8281 86.4941C43.7396 87.1061 44.4427 87.9557 44.9375 89.043C45.4388 90.1237 45.6895 91.3737 45.6895 92.793V92.9785C45.6895 94.3978 45.4355 95.651 44.9277 96.7383C44.4264 97.8255 43.7233 98.6751 42.8184 99.2871C41.9199 99.8991 40.8685 100.205 39.6641 100.205ZM46.8418 100L46.8516 98.9648L47.2227 98.9551C47.7044 98.9551 48.0951 98.8021 48.3945 98.4961C48.694 98.1836 48.9121 97.6725 49.0488 96.9629C49.1921 96.2533 49.2637 95.2995 49.2637 94.1016V90.4199L47.6719 90.293V89.4336H57.6816V90.293L56.0898 90.4199V99.0234L57.6816 99.1504V100H53.3164V99.1504L54.9082 99.0234V90.4297H50.4355V94.1016C50.4355 96.1784 50.1947 97.6823 49.7129 98.6133C49.2311 99.5378 48.4141 100 47.2617 100H46.8418ZM60.2402 100V98.4082H61.5781V100H60.2402ZM69.2246 100V99.1504L70.8164 99.0234V90.4199L69.2246 90.293V89.4336H80.4453V90.293L78.8535 90.4199V99.0234L80.4453 99.1504V100H76.0898V99.1504L77.6816 99.0234V90.4297H71.9883V99.0234L73.5801 99.1504V100H69.2246ZM87.2617 100.205C86.3177 100.205 85.4941 99.9805 84.791 99.5312C84.0879 99.0755 83.541 98.4473 83.1504 97.6465C82.7663 96.8457 82.5742 95.9245 82.5742 94.8828V94.5605C82.5742 93.5254 82.7663 92.6074 83.1504 91.8066C83.541 91.0059 84.0846 90.3776 84.7812 89.9219C85.4844 89.4661 86.3047 89.2383 87.2422 89.2383C88.1797 89.2383 89 89.4661 89.7031 89.9219C90.4062 90.3776 90.9499 91.0059 91.334 91.8066C91.7246 92.6074 91.9199 93.5254 91.9199 94.5605V94.8828C91.9199 95.9245 91.7246 96.8457 91.334 97.6465C90.9499 98.4473 90.4062 99.0755 89.7031 99.5312C89.0065 99.9805 88.1927 100.205 87.2617 100.205ZM87.2617 99.2285C87.9844 99.2285 88.6061 99.0365 89.127 98.6523C89.6478 98.2682 90.0482 97.7507 90.3281 97.0996C90.6081 96.4421 90.748 95.7031 90.748 94.8828V94.5605C90.748 93.7533 90.6048 93.0241 90.3184 92.373C90.0384 91.7155 89.6348 91.1947 89.1074 90.8105C88.5866 90.4199 87.9648 90.2246 87.2422 90.2246C86.5065 90.2246 85.8783 90.4199 85.3574 90.8105C84.8366 91.1947 84.4362 91.7155 84.1562 92.373C83.8828 93.0241 83.7461 93.7533 83.7461 94.5605V94.8828C83.7461 95.7031 83.8828 96.4421 84.1562 97.0996C84.4362 97.7507 84.8366 98.2682 85.3574 98.6523C85.8848 99.0365 86.5195 99.2285 87.2617 99.2285ZM100.357 100V99.1504L101.949 99.0234V95.5176C101.546 95.6738 101.093 95.804 100.592 95.9082C100.097 96.0124 99.6283 96.0645 99.1855 96.0645C97.8249 96.0645 96.8125 95.7617 96.1484 95.1562C95.4844 94.5508 95.1523 93.5286 95.1523 92.0898V90.4102L93.5605 90.2832V89.4336H97.916V90.2832L96.3242 90.4102V92.0898C96.3242 93.2031 96.5456 93.9811 96.9883 94.4238C97.4375 94.86 98.1699 95.0781 99.1855 95.0781C99.6608 95.0716 100.146 95.0163 100.641 94.9121C101.142 94.8079 101.578 94.6842 101.949 94.541V90.4199L100.357 90.293V89.4336H104.713V90.293L103.121 90.4199V99.0234L104.713 99.1504V100H100.357ZM109.176 100V99.1504L110.768 99.0234V90.4102H107.906L107.838 92.4219H106.793V89.4336H116.051V92.4219H115.006L114.938 90.4102H111.939V99.0234L113.531 99.1504V100H109.176ZM120.973 100.205C119.97 100.205 119.186 99.9382 118.619 99.4043C118.053 98.8704 117.77 98.1478 117.77 97.2363C117.77 96.2598 118.183 95.472 119.01 94.873C119.843 94.2676 120.976 93.9648 122.408 93.9648H124.596V92.7539C124.596 91.9857 124.368 91.3704 123.912 90.9082C123.456 90.446 122.776 90.2148 121.871 90.2148C121.357 90.2148 120.895 90.2995 120.484 90.4688C120.081 90.6315 119.729 90.8398 119.43 91.0938L119.332 92.7051H118.365V90.498C118.821 90.1009 119.339 89.7917 119.918 89.5703C120.497 89.349 121.155 89.2383 121.891 89.2383C123.134 89.2383 124.091 89.5508 124.762 90.1758C125.432 90.8008 125.768 91.6667 125.768 92.7734V97.8711C125.768 98.0794 125.774 98.2878 125.787 98.4961C125.8 98.6979 125.823 98.8997 125.855 99.1016L127.115 99.1504V100H124.811C124.739 99.6159 124.687 99.3066 124.654 99.0723C124.622 98.8379 124.602 98.5742 124.596 98.2812C124.212 98.8477 123.704 99.3099 123.072 99.668C122.441 100.026 121.741 100.205 120.973 100.205ZM121.109 99.1797C121.832 99.1797 122.516 98.9909 123.16 98.6133C123.811 98.2292 124.29 97.7214 124.596 97.0898V94.8633H122.398C121.318 94.8633 120.471 95.0977 119.859 95.5664C119.247 96.0286 118.941 96.5983 118.941 97.2754C118.941 97.8418 119.133 98.3008 119.518 98.6523C119.908 99.0039 120.439 99.1797 121.109 99.1797Z" fill="black"/>
</svg>
